<svg xmlns="http://www.w3.org/2000/svg" viewBox="0 0 48 48" width="48" height="48">
  <circle cx="24" cy="24" r="22" fill="#24292e"/>
  <path d="M24 4C12.95 4 4 12.95 4 24c0 8.84 5.74 16.32 13.68 18.96 1 .18 1.36-.44 1.36-.96v-3.38c-5.56 1.2-6.74-2.68-6.74-2.68-.92-2.34-2.24-2.96-2.24-2.96-1.82-1.24.14-1.22.14-1.22 2.02.14 3.08 2.08 3.08 2.08 1.78 3.06 4.68 2.18 5.82 1.66.18-1.3.7-2.18 1.28-2.68-4.44-.5-9.12-2.22-9.12-9.9 0-2.18.78-3.96 2.06-5.36-.2-.5-.9-2.54.2-5.28 0 0 1.68-.54 5.5 2.04 1.6-.44 3.3-.66 5-.66 1.7 0 3.4.22 5 .66 3.82-2.58 5.5-2.04 5.5-2.04 1.1 2.74.4 4.78.2 5.28 1.28 1.4 2.06 3.18 2.06 5.36 0 7.68-4.68 9.4-9.12 9.9.72.62 1.36 1.84 1.36 3.72v5.52c0 .54.36 1.16 1.38.96C38.26 40.32 44 32.82 44 24 44 12.95 35.05 4 24 4z" fill="#fff"/>
</svg>
